<?xml version="1.0" standalone="no"?>
<!DOCTYPE svg PUBLIC "-//W3C//DTD SVG 20010904//EN"
 "http://www.w3.org/TR/2001/REC-SVG-20010904/DTD/svg10.dtd">
<svg version="1.0" xmlns="http://www.w3.org/2000/svg"
 width="430.000000pt" height="430.000000pt" viewBox="0 0 430.000000 430.000000"
 preserveAspectRatio="xMidYMid meet">
<metadata>
Created by potrace 1.11, written by Peter Selinger 2001-2013
</metadata>
<g transform="translate(0.000000,430.000000) scale(0.100000,-0.100000)"
fill="#000000" stroke="none">
<path d="M1257 3615 c-46 -17 -92 -49 -131 -90 -72 -76 -212 -279 -394 -570
-337 -540 -521 -757 -679 -800 -50 -14 -48 -15 32 -19 37 -2 111 21 184 58
176 88 378 273 700 641 15 17 50 59 80 94 29 35 58 70 64 76 7 7 32 37 57 66
96 115 167 189 180 189 17 0 133 -144 205 -255 40 -60 125 -200 189 -310 142
-241 153 -257 211 -285 87 -42 188 -22 249 50 39 47 44 79 36 226 -5 90 178
331 330 434 86 58 80 59 172 -33 82 -81 108 -109 223 -242 294 -339 514 -565
680 -696 246 -195 442 -272 598 -237 56 14 61 23 10 22 -44 -1 -129 26 -182
58 -166 100 -363 334 -706 838 -155 228 -190 277 -274 389 -164 220 -285 316
-406 324 -117 9 -262 -46 -405 -154 -93 -70 -215 -192 -263 -261 -17 -27 -35
-48 -39 -48 -3 0 -27 32 -53 70 -133 199 -298 373 -413 433 -61 32 -86 40
-145 43 -48 2 -85 -1 -110 -11z"/>
<path d="M2563 2328 c-156 -206 -364 -312 -598 -304 -157 5 -277 52 -435 171
-83 62 -83 62 -56 -9 100 -264 384 -412 674 -351 213 44 388 205 442 404 12
45 24 141 17 141 -2 0 -22 -24 -44 -52z"/>
<path d="M348 2225 c-7 -8 18 -141 47 -250 134 -497 490 -941 915 -1142 161
-76 346 -131 505 -150 89 -10 378 -10 470 0 297 34 626 159 895 339 273 184
507 429 675 708 44 72 105 191 105 203 0 4 -42 -28 -92 -71 -515 -438 -1006
-686 -1513 -767 -90 -15 -141 -18 -290 -20 -387 -3 -679 92 -995 325 -93 68
-121 92 -235 205 -146 146 -328 378 -434 553 -46 76 -45 75 -53 67z"/>
</g>
</svg>
