<svg width="158" height="724" viewBox="0 0 158 724" fill="none" xmlns="http://www.w3.org/2000/svg">
<g filter="url(#filter0_f)">
<rect width="163.077" height="163.077" transform="matrix(0.707689 -0.706524 0.707689 0.706524 126.928 119.218)" fill="url(#paint0_linear)" fill-opacity="0.31"/>
<rect width="163.077" height="163.077" transform="matrix(0.708431 -0.70578 0.708431 0.70578 4.00003 240.164)" fill="url(#paint1_linear)" fill-opacity="0.31"/>
<rect width="163.077" height="163.077" transform="matrix(0.707689 -0.706524 0.707689 0.706524 126.928 362)" fill="url(#paint2_radial)" fill-opacity="0.31"/>
<rect width="163.077" height="163.077" transform="matrix(0.707689 -0.706524 0.707689 0.706524 126.928 604.782)" fill="url(#paint3_radial)" fill-opacity="0.31"/>
<rect width="163.077" height="163.077" transform="matrix(0.708431 -0.70578 0.708431 0.70578 4.00003 483.836)" fill="url(#paint4_radial)" fill-opacity="0.31"/>
</g>
<defs>
<filter id="filter0_f" x="3.05176e-05" y="3.05176e-05" width="484.67" height="724" filterUnits="userSpaceOnUse" color-interpolation-filters="sRGB">
<feFlood flood-opacity="0" result="BackgroundImageFix"/>
<feBlend mode="normal" in="SourceGraphic" in2="BackgroundImageFix" result="shape"/>
<feGaussianBlur stdDeviation="2" result="effect1_foregroundBlur"/>
</filter>
<linearGradient id="paint0_linear" x1="81.5383" y1="0" x2="81.5383" y2="163.077" gradientUnits="userSpaceOnUse">
<stop stop-color="#EEEEEE"/>
<stop offset="0.0001" stop-color="#EEEEEE" stop-opacity="0"/>
</linearGradient>
<linearGradient id="paint1_linear" x1="93.633" y1="69.2357" x2="19.3871" y2="182.038" gradientUnits="userSpaceOnUse">
<stop stop-color="#EEEEEE" stop-opacity="0"/>
<stop offset="0.708333" stop-color="#EEEEEE"/>
</linearGradient>
<radialGradient id="paint2_radial" cx="0" cy="0" r="1" gradientUnits="userSpaceOnUse" gradientTransform="translate(163.051 0.0255646) rotate(135) scale(248.387)">
<stop stop-color="#EEEEEE"/>
<stop offset="1" stop-color="#EEEEEE" stop-opacity="0"/>
</radialGradient>
<radialGradient id="paint3_radial" cx="0" cy="0" r="1" gradientUnits="userSpaceOnUse" gradientTransform="translate(153.709 9.3678) rotate(135) scale(246.923)">
<stop stop-color="#EEEEEE"/>
<stop offset="1" stop-color="#EEEEEE" stop-opacity="0"/>
</radialGradient>
<radialGradient id="paint4_radial" cx="0" cy="0" r="1" gradientUnits="userSpaceOnUse" gradientTransform="translate(163.225 0.517313) rotate(135.869) scale(230.459 230.459)">
<stop stop-color="#EEEEEE"/>
<stop offset="1" stop-color="#EEEEEE" stop-opacity="0"/>
</radialGradient>
</defs>
</svg>
